<svg xmlns="http://www.w3.org/2000/svg" width="81" height="81" fill="none" viewBox="0 0 81 81">
  <rect width="80" height="80" x=".319" y=".123" fill="url(#a)" rx="24"/>
  <rect width="80" height="80" x=".319" y=".123" fill="#000" fill-opacity=".2" rx="24"/>
  <path fill="#fff" d="M40.32 52.453c.587 0 1.073-.183 1.458-.55.383-.369.574-.834.574-1.397V42.07h8.877c.543 0 1.006-.184 1.39-.553.384-.367.575-.831.575-1.394 0-.562-.191-1.028-.574-1.396-.385-.367-.871-.55-1.458-.55h-8.81v-8.502c0-.519-.191-.962-.574-1.329-.385-.369-.871-.553-1.459-.553-.587 0-1.072.184-1.455.553-.385.367-.578.832-.578 1.394v8.436H29.41c-.542 0-1.004.184-1.387.55-.385.37-.578.835-.578 1.397 0 .563.193 1.027.578 1.394.383.369.868.553 1.455.553h8.81v8.501c0 .52.192.963.577 1.332.383.367.868.55 1.455.55Zm0 12.33c-3.57 0-6.923-.649-10.062-1.947-3.14-1.297-5.863-3.05-8.167-5.256-2.304-2.206-4.134-4.813-5.49-7.821-1.354-3.006-2.032-6.218-2.032-9.636 0-3.418.678-6.63 2.033-9.638 1.355-3.006 3.185-5.612 5.489-7.819 2.304-2.206 5.026-3.958 8.167-5.256 3.139-1.298 6.492-1.947 10.061-1.947 3.57 0 6.924.65 10.065 1.947 3.139 1.298 5.86 3.05 8.164 5.256 2.304 2.207 4.133 4.813 5.489 7.819 1.355 3.008 2.033 6.22 2.033 9.638s-.678 6.63-2.033 9.636c-1.356 3.008-3.185 5.614-5.49 7.82-2.303 2.207-5.024 3.96-8.163 5.257-3.141 1.298-6.496 1.947-10.065 1.947Zm0-3.893c6.008 0 11.124-2.023 15.35-6.067 4.222-4.046 6.334-8.946 6.334-14.7s-2.112-10.654-6.335-14.7c-4.225-4.044-9.341-6.066-15.35-6.066-6.008 0-11.124 2.022-15.347 6.066-4.225 4.046-6.337 8.946-6.337 14.7s2.112 10.654 6.337 14.7c4.223 4.044 9.339 6.067 15.347 6.067Z"/>
  <defs>
    <linearGradient id="a" x1="-21.727" x2="110.023" y1="-24.163" y2="-10.042" gradientUnits="userSpaceOnUse">
      <stop stop-color="#FA00FF"/>
      <stop offset="1" stop-color="#4081FF"/>
    </linearGradient>
  </defs>
</svg>
