<svg xmlns="http://www.w3.org/2000/svg" width="233" height="231" fill="none" viewBox="0 0 233 231">
  <path fill="#fff" fill-rule="evenodd" d="M162.712 113.727c0 2.191-.091 4.243-.275 6.158-.18 1.875-1.801 3.237-3.686 3.237H95.742c-2.255 0-4.057 1.938-3.587 4.144 1.07 5.016 3.306 9.086 6.706 12.211 2.393 2.199 5.094 3.786 8.101 4.758 1.783.577 3.145 2.143 3.145 4.016v12.914c0 2.258-1.935 4.046-4.164 3.685-5.658-.918-10.92-2.706-15.782-5.365-7.307-4.176-13.049-10.033-17.224-17.573-4.06-7.539-6.09-16.238-6.09-26.097 0-9.975 2.03-18.733 6.09-26.272 4.06-7.54 9.743-13.339 17.05-17.398 7.308-4.06 15.717-6.09 25.228-6.09 9.163 0 17.34 1.972 24.532 5.916 7.307 3.944 12.932 9.569 16.876 16.876 4.06 7.192 6.089 15.485 6.089 24.88Zm-29.154-6.959c2.157 0 3.937-1.783 3.547-3.904-.821-4.468-2.956-8.154-6.406-11.059-4.407-3.828-9.801-5.741-16.18-5.741-6.031 0-11.135 1.855-15.31 5.567-3.105 2.75-5.293 6.346-6.566 10.791-.646 2.254 1.183 4.346 3.528 4.346h37.387Z" clip-rule="evenodd"/>
  <path fill="#fff" d="M161.942 165.361a.77.77 0 0 0 .77-.771v-32.152a.771.771 0 0 0-.77-.771h-7.828a.77.77 0 0 0-.687.422l-11.844 23.281a.771.771 0 0 1-1.375 0l-11.844-23.281a.77.77 0 0 0-.687-.422h-7.885a.771.771 0 0 0-.771.771v32.152a.77.77 0 0 0 .771.771h6.496a.77.77 0 0 0 .771-.771v-17.834c0-.816 1.102-1.073 1.462-.341l9.12 18.516a.77.77 0 0 0 .691.43h5.126a.77.77 0 0 0 .692-.432l9.062-18.497c.359-.733 1.463-.477 1.463.34v17.818a.77.77 0 0 0 .771.771h6.496Z"/>
  <path fill="#fff" d="M116.75 231c-21.411 0-40.853-5.307-58.327-15.921-17.48-10.614-31.161-24.797-41.043-42.548v24.431c0 2.379-.776 4.348-2.328 5.907-1.56 1.552-3.528 2.328-5.907 2.328-2.38 0-4.345-.776-5.897-2.328C1.69 201.31.91 199.341.91 196.962v-42.274c0-2.745.963-5.08 2.888-7.005 1.918-1.918 4.25-2.877 6.995-2.877h42.273c2.38 0 4.348.779 5.907 2.339 1.552 1.551 2.328 3.517 2.328 5.896s-.776 4.348-2.328 5.907c-1.559 1.552-3.528 2.328-5.907 2.328H30.007c8.052 16.104 19.856 29.006 35.41 38.705 15.556 9.699 32.667 14.549 51.333 14.549 25.437 0 47.445-8.327 66.024-24.98 18.571-16.653 29.32-37.607 32.248-62.861.366-2.379 1.325-4.349 2.877-5.908 1.559-1.552 3.528-2.328 5.908-2.328 2.196 0 4.117.824 5.764 2.471 1.647 1.647 2.288 3.569 1.922 5.765-1.281 14.64-5.216 28.321-11.804 41.043-6.588 12.715-15.006 23.739-25.254 33.073-10.249 9.333-22.005 16.697-35.269 22.092-13.271 5.402-27.41 8.103-42.416 8.103ZM9.694 112.963c-2.196 0-4.118-.823-5.765-2.47-1.647-1.647-2.288-3.569-1.922-5.765 1.464-15.006 5.49-28.87 12.079-41.593C20.674 50.42 29.092 39.396 39.34 30.063c10.248-9.333 22.008-16.61 35.28-21.828C87.882 3.023 101.926.417 116.75.417c21.228 0 40.671 5.307 58.327 15.921 17.663 10.614 31.344 24.98 41.043 43.097v-24.98c0-2.379.78-4.348 2.339-5.907 1.552-1.552 3.517-2.328 5.897-2.328 2.379 0 4.344.776 5.896 2.328 1.559 1.56 2.339 3.528 2.339 5.907V76.73c0 2.745-.959 5.076-2.877 6.994-1.925 1.925-4.26 2.888-7.006 2.888h-42.273c-2.379 0-4.345-.78-5.896-2.339-1.56-1.552-2.339-3.517-2.339-5.896 0-2.38.779-4.348 2.339-5.907 1.551-1.552 3.517-2.328 5.896-2.328h23.058c-7.869-15.739-19.581-28.549-35.136-38.43-15.555-9.883-32.758-14.824-51.607-14.824-25.071 0-46.984 8.235-65.738 24.705-18.762 16.47-29.606 37.516-32.534 63.136-.366 2.379-1.325 4.345-2.877 5.897-1.56 1.559-3.528 2.338-5.907 2.338Z"/>
</svg>
