<svg xmlns="http://www.w3.org/2000/svg" width="36" height="36" fill="none" viewBox="0 0 36 36">
  <path fill="#fff" d="M18.08 6.764a10.7 10.7 0 0 1 7.3 2.866l4.41-5.135A17.5 17.5 0 0 0 3.806 7.378l4.878 4.934a10.732 10.732 0 0 1 9.398-5.548Zm0 21.471a10.739 10.739 0 0 1-10.224-7.459l-5.608 4.186a17.5 17.5 0 0 0 25.77 6.943l-4.916-4.916a10.687 10.687 0 0 1-5.021 1.246Z"/>
  <path fill="#fff" d="M7.345 17.5c-.003-1.814.457-3.6 1.336-5.187L3.803 7.38a17.517 17.517 0 0 0-1.555 17.584l5.608-4.186a10.728 10.728 0 0 1-.511-3.277Zm27.897-3.413h-17.1v6.7h10.16a10.768 10.768 0 0 1-5.2 6.2l4.916 4.916a17.52 17.52 0 0 0 7.224-17.816Z"/>
</svg>
