<svg xmlns="http://www.w3.org/2000/svg" width="31" height="30" fill="none" viewBox="0 0 31 30">
  <mask id="a" width="31" height="30" x="0" y="0" maskUnits="userSpaceOnUse" style="mask-type:alpha">
    <path fill="#868686" d="M.569 0h30v30h-30z"/>
  </mask>
  <g mask="url(#a)">
    <path fill="#868686" d="M14.45 26.875a2 2 0 0 1-1.984-1.74l-.126-.961c-.089-.678-.576-1.226-1.16-1.58-.612-.37-1.363-.483-2.02-.204l-.834.354a2 2 0 0 1-2.515-.844l-1.112-1.933a2 2 0 0 1 .529-2.593l1.2-.906c.277-.21.395-.56.376-.905a9.753 9.753 0 0 1 0-1.094c.02-.366-.108-.734-.4-.955l-1.172-.885a2 2 0 0 1-.526-2.598l1.11-1.918a2 2 0 0 1 2.499-.845l.85.353c.655.273 1.399.155 2.015-.199.6-.346 1.07-.914 1.16-1.601l.126-.956a2 2 0 0 1 1.983-1.74h2.24a2 2 0 0 1 1.984 1.74l.125.956c.09.689.563 1.25 1.162 1.6.598.351 1.32.477 1.962.213l.905-.373a2 2 0 0 1 2.494.847l1.114 1.925a2 2 0 0 1-.524 2.596l-1.233.935c-.277.21-.39.558-.39.905V15c0 .167-.005.338-.016.515-.021.377.112.753.414.98l1.163.88a2 2 0 0 1 .528 2.592l-1.108 1.928a2 2 0 0 1-2.522.842l-.8-.343c-.656-.281-1.401-.159-2.017.2-.582.337-1.04.885-1.128 1.551l-.13.99a2 2 0 0 1-1.982 1.74h-2.24Zm-.28-3.106a1.4 1.4 0 0 0 2.778.013l.102-.786c.106-.81.709-1.444 1.444-1.799.166-.08.327-.166.482-.26.175-.104.348-.219.52-.342.65-.466 1.488-.643 2.224-.33l.758.321a1.39 1.39 0 0 0 1.375-2.394l-.927-.692c-.476-.356-.65-.971-.59-1.563a9.553 9.553 0 0 0 0-1.89c-.06-.562.1-1.152.55-1.494l.99-.75A1.392 1.392 0 0 0 22.5 9.407l-.756.314c-.764.318-1.633.111-2.316-.357a7.893 7.893 0 0 0-.917-.54c-.741-.37-1.351-1.024-1.451-1.847l-.091-.747a1.4 1.4 0 0 0-2.778-.013l-.098.752c-.108.827-.733 1.47-1.486 1.828a6.95 6.95 0 0 0-.444.233 7.415 7.415 0 0 0-.557.356c-.65.456-1.479.636-2.212.332l-.76-.315a1.386 1.386 0 0 0-1.359 2.393l.927.69c.462.343.631.943.555 1.513a7.574 7.574 0 0 0-.063 1c0 .333.021.656.063.969.076.57-.09 1.171-.55 1.519l-.945.714a1.386 1.386 0 0 0 1.377 2.38l.72-.305c.75-.319 1.604-.126 2.272.341a6.832 6.832 0 0 0 1 .58c.744.35 1.348.996 1.447 1.813l.092.758Z"/>
  </g>
</svg>
