<svg xmlns="http://www.w3.org/2000/svg" width="31" height="30" fill="none" viewBox="0 0 31 30">
  <mask id="a" width="31" height="30" x="0" y="0" maskUnits="userSpaceOnUse" style="mask-type:alpha">
    <path fill="#868686" d="M.069 0h30v30h-30z"/>
  </mask>
  <g mask="url(#a)">
    <path fill="#868686" d="M22.57 27.188c-.959 0-1.771-.334-2.438-1-.667-.667-1-1.48-1-2.438 0-.146.01-.308.031-.485.021-.177.063-.328.125-.453l-9.25-5.437a3.77 3.77 0 0 1-1.125.781 3.236 3.236 0 0 1-1.343.282c-.959 0-1.771-.334-2.438-1-.667-.667-1-1.48-1-2.438 0-.958.333-1.77 1-2.438.667-.666 1.48-1 2.438-1 .479 0 .927.094 1.343.282a3.77 3.77 0 0 1 1.125.781l9.25-5.438a1.369 1.369 0 0 1-.125-.453 4.145 4.145 0 0 1-.031-.484c0-.958.333-1.77 1-2.438.667-.666 1.48-1 2.438-1 .958 0 1.77.334 2.437 1 .667.667 1 1.48 1 2.438 0 .958-.333 1.77-1 2.438-.667.666-1.48 1-2.438 1-.479 0-.927-.094-1.343-.282a3.768 3.768 0 0 1-1.125-.781l-9.25 5.438c.062.124.104.27.125.437a4.034 4.034 0 0 1 0 .984 1.39 1.39 0 0 1-.125.454l9.25 5.437a3.768 3.768 0 0 1 1.125-.781 3.236 3.236 0 0 1 1.344-.282c.958 0 1.77.334 2.437 1 .667.667 1 1.48 1 2.438 0 .958-.333 1.77-1 2.438-.667.666-1.48 1-2.438 1Zm0-19.375a1.51 1.51 0 0 0 1.11-.454 1.51 1.51 0 0 0 .452-1.109c0-.438-.15-.808-.453-1.11a1.512 1.512 0 0 0-1.11-.452c-.437 0-.807.15-1.108.452a1.51 1.51 0 0 0-.454 1.11c0 .438.151.807.454 1.109.301.302.671.454 1.109.454Zm-15 8.75a1.51 1.51 0 0 0 1.11-.454c.301-.302.452-.672.452-1.109 0-.438-.15-.807-.452-1.109a1.51 1.51 0 0 0-1.11-.454 1.51 1.51 0 0 0-1.11.454A1.506 1.506 0 0 0 6.008 15c0 .438.151.807.454 1.109.301.302.671.453 1.109.453Zm15 8.75a1.51 1.51 0 0 0 1.11-.454c.301-.302.452-.672.452-1.109 0-.438-.15-.807-.453-1.109a1.51 1.51 0 0 0-1.11-.453c-.437 0-.807.15-1.108.453a1.506 1.506 0 0 0-.454 1.109c0 .438.151.807.454 1.109.301.302.671.453 1.109.453Z"/>
  </g>
</svg>
