<svg xmlns="http://www.w3.org/2000/svg" width="391" height="844" fill="none" viewBox="0 0 391 844">
  <g clip-path="url(#a)">
    <path fill="#fff" d="M.93 0h390v844H.93z"/>
    <g opacity=".1">
      <path fill="url(#b)" d="M311.528 294.743c-59.524.366-230.778 53.789-306.692-51.394-27.382-46.345-48.3-266.901 14.824-266.06 59.58.794 25.572-8.696 164.698 0 195.337 12.208 184.417 206.21 127.17 317.454Z"/>
      <path fill="#000" fill-opacity=".2" d="M311.528 294.743c-59.524.366-230.778 53.789-306.692-51.394-27.382-46.345-48.3-266.901 14.824-266.06 59.58.794 25.572-8.696 164.698 0 195.337 12.208 184.417 206.21 127.17 317.454Z"/>
    </g>
    <g opacity=".1">
      <path fill="url(#c)" d="M339.559 979.549c-56.558-.344-218.654 50.891-292.044-54.901C20.944 878.11-1.56 657.933 58.432 659.524c56.626 1.501 24.197-8.366 156.504 1.961 185.763 14.5 177.697 207.819 124.623 318.064Z"/>
      <path fill="#000" fill-opacity=".2" d="M339.559 979.549c-56.558-.344-218.654 50.891-292.044-54.901C20.944 878.11-1.56 657.933 58.432 659.524c56.626 1.501 24.197-8.366 156.504 1.961 185.763 14.5 177.697 207.819 124.623 318.064Z"/>
    </g>
    <g opacity=".1">
      <path fill="url(#d)" d="M308.631 657.796c4.877-29.429 30.798-95.947 95.466-126.587 27.975-10.504 108.424-27.463 102.572 3.665-5.523 29.381-56.275 14.75-39.268 108.254 17.447 95.921-102.111 50.206-158.77 14.668Z"/>
      <path fill="#000" fill-opacity=".2" d="M308.631 657.796c4.877-29.429 30.798-95.947 95.466-126.587 27.975-10.504 108.424-27.463 102.572 3.665-5.523 29.381-56.275 14.75-39.268 108.254 17.447 95.921-102.111 50.206-158.77 14.668Z"/>
    </g>
    <mask id="e" width="339" height="338" x="11" y="669" maskUnits="userSpaceOnUse" style="mask-type:alpha">
      <path fill="#9007FC" fill-opacity=".2" d="M11.883 669.248h337.323v337.323H11.883z"/>
    </mask>
    <g mask="url(#e)">
      <path fill="#9007FC" fill-opacity=".2" d="M180.309 985.488c-27.407 0-52.294-6.793-74.661-20.379-22.375-13.587-39.888-31.742-52.538-54.464v31.273c0 3.045-.993 5.565-2.98 7.561-1.995 1.987-4.516 2.98-7.561 2.98s-5.561-.993-7.548-2.98c-1.995-1.996-2.993-4.516-2.993-7.561v-54.113c0-3.513 1.232-6.502 3.696-8.967 2.455-2.455 5.44-3.682 8.953-3.682H98.79c3.046 0 5.566.998 7.562 2.994 1.987 1.986 2.98 4.502 2.98 7.547s-.993 5.566-2.98 7.562c-1.996 1.986-4.516 2.979-7.562 2.979H69.274c10.307 20.615 25.416 37.129 45.327 49.545 19.912 12.415 41.814 18.623 65.708 18.623 32.561 0 60.732-10.659 84.513-31.976 23.772-21.317 37.532-48.138 41.28-80.465.469-3.045 1.696-5.566 3.683-7.562 1.996-1.986 4.516-2.979 7.561-2.979 2.811 0 5.271 1.054 7.379 3.162 2.109 2.108 2.929 4.568 2.46 7.379-1.64 18.74-6.676 36.253-15.109 52.538-8.433 16.276-19.209 30.387-32.327 42.334-13.118 11.947-28.166 21.373-45.145 28.279-16.988 6.915-35.086 10.372-54.295 10.372ZM43.272 834.396c-2.811 0-5.27-1.054-7.38-3.162-2.108-2.109-2.927-4.568-2.459-7.379 1.874-19.209 7.028-36.956 15.46-53.241 8.434-16.276 19.21-30.387 32.328-42.334 13.118-11.947 28.171-21.261 45.159-27.942 16.978-6.671 34.955-10.007 53.929-10.007 27.173 0 52.06 6.793 74.661 20.38 22.61 13.587 40.122 31.975 52.538 55.166v-31.975c0-3.045.998-5.566 2.994-7.562 1.986-1.986 4.502-2.979 7.547-2.979s5.561.993 7.548 2.979c1.996 1.996 2.993 4.517 2.993 7.562v54.112c0 3.514-1.227 6.498-3.682 8.953-2.464 2.465-5.453 3.697-8.967 3.697h-54.112c-3.046 0-5.561-.998-7.548-2.994-1.996-1.986-2.994-4.502-2.994-7.548 0-3.045.998-5.565 2.994-7.561 1.987-1.987 4.502-2.98 7.548-2.98h29.515c-10.072-20.146-25.064-36.543-44.976-49.193-19.911-12.649-41.931-18.974-66.059-18.974-32.092 0-60.142 10.541-84.148 31.624-24.015 21.082-37.897 48.021-41.645 80.817-.469 3.045-1.696 5.561-3.683 7.547-1.995 1.996-4.516 2.994-7.561 2.994Zm136.686 99.089c-2.577 0-4.802-.937-6.676-2.811-1.874-1.875-2.811-4.1-2.811-6.677v-8.081c-8.902-1.874-16.515-5.154-22.84-9.839-6.325-4.685-11.361-11.01-15.109-18.974-1.172-2.343-1.172-4.803 0-7.379 1.171-2.577 2.928-4.334 5.27-5.271 2.343-.937 4.746-.937 7.211 0 2.455.937 4.385 2.577 5.79 4.919 3.514 6.325 8.026 11.188 13.535 14.59 5.501 3.392 11.53 5.088 18.089 5.088 7.965 0 15.11-1.992 21.434-5.974 6.325-3.982 9.488-10.424 9.488-19.326 0-7.262-2.694-13.062-8.082-17.4-5.388-4.329-15.578-9.304-30.57-14.926-14.524-5.154-24.948-10.954-31.273-17.401-6.324-6.437-9.487-14.926-9.487-25.468 0-9.135 3.224-17.395 9.67-24.779 6.437-7.374 15.629-12.232 27.576-14.575v-7.379c0-2.577.937-4.802 2.811-6.676 1.874-1.874 4.1-2.811 6.676-2.811 2.577 0 4.803.937 6.677 2.811 1.874 1.874 2.811 4.099 2.811 6.676v7.379c6.324.469 12.242 2.46 17.751 5.974 5.501 3.513 10.125 7.964 13.873 13.352 1.639 2.108 1.93 4.507.871 7.196-1.049 2.699-2.862 4.517-5.439 5.454-2.109.937-4.273.997-6.494.182-2.23-.824-4.282-2.291-6.156-4.399-2.577-3.28-5.856-5.917-9.838-7.913-3.983-1.986-8.551-2.98-13.704-2.98-8.667 0-15.517 2.109-20.549 6.325-5.041 4.217-7.561 9.604-7.561 16.163 0 6.56 2.459 11.713 7.379 15.461 4.919 3.748 14.757 8.082 29.515 13.001 16.866 6.091 28.171 12.945 33.915 20.563 5.735 7.608 8.602 16.332 8.602 26.17 0 13.587-4.39 23.777-13.17 30.57-8.789 6.793-18.688 10.893-29.698 12.298v7.379c0 2.577-.937 4.802-2.811 6.677-1.874 1.874-4.1 2.811-6.676 2.811Z"/>
    </g>
  </g>
  <defs>
    <linearGradient id="b" x1="-183.603" x2="418.061" y1="-92.689" y2="-172.139" gradientUnits="userSpaceOnUse">
      <stop stop-color="#FA00FF"/>
      <stop offset="1" stop-color="#4081FF"/>
    </linearGradient>
    <linearGradient id="c" x1="-135.549" x2="434.358" y1="587.325" y2="508.925" gradientUnits="userSpaceOnUse">
      <stop stop-color="#FA00FF"/>
      <stop offset="1" stop-color="#4081FF"/>
    </linearGradient>
    <linearGradient id="d" x1="564.072" x2="564.297" y1="459.045" y2="755.644" gradientUnits="userSpaceOnUse">
      <stop stop-color="#FA00FF"/>
      <stop offset="1" stop-color="#4081FF"/>
    </linearGradient>
    <clipPath id="a">
      <path fill="#fff" d="M0 0h390v844H0z" transform="translate(.93)"/>
    </clipPath>
  </defs>
</svg>
