<svg xmlns="http://www.w3.org/2000/svg" width="92" height="76" fill="none" viewBox="0 0 92 76">
  <path fill="url(#a)" d="M.847 23.298V60.58a15.027 15.027 0 0 0 15.028 15.03h60.11a15.027 15.027 0 0 0 15.029-15.03V15.498A15.028 15.028 0 0 0 75.985.471h-60.11A15.028 15.028 0 0 0 .847 15.498v7.8ZM15.875 7.985h60.11a7.514 7.514 0 0 1 7.514 7.513v5.56L45.93 41.287 8.361 21.058v-5.56a7.514 7.514 0 0 1 7.514-7.513Zm-7.514 21.61L44.15 48.86a3.757 3.757 0 0 0 3.562 0L83.5 29.594v30.987a7.514 7.514 0 0 1-7.513 7.514h-60.11A7.514 7.514 0 0 1 8.36 60.58V29.594Z"/>
  <path fill="#000" fill-opacity=".2" d="M.847 23.298V60.58a15.027 15.027 0 0 0 15.028 15.03h60.11a15.027 15.027 0 0 0 15.029-15.03V15.498A15.028 15.028 0 0 0 75.985.471h-60.11A15.028 15.028 0 0 0 .847 15.498v7.8ZM15.875 7.985h60.11a7.514 7.514 0 0 1 7.514 7.513v5.56L45.93 41.287 8.361 21.058v-5.56a7.514 7.514 0 0 1 7.514-7.513Zm-7.514 21.61L44.15 48.86a3.757 3.757 0 0 0 3.562 0L83.5 29.594v30.987a7.514 7.514 0 0 1-7.513 7.514h-60.11A7.514 7.514 0 0 1 8.36 60.58V29.594Z"/>
  <defs>
    <linearGradient id="a" x1="-24" x2="123.752" y1="-22.339" y2="-3.336" gradientUnits="userSpaceOnUse">
      <stop stop-color="#FA00FF"/>
      <stop offset="1" stop-color="#4081FF"/>
    </linearGradient>
  </defs>
</svg>
