<svg xmlns="http://www.w3.org/2000/svg" width="45" height="46" fill="none" viewBox="0 0 45 46">
  <rect width="44.344" height="44.344" x=".281" y=".78" fill="url(#a)" rx="14"/>
  <rect width="44.344" height="44.344" x=".281" y=".78" fill="#000" fill-opacity=".2" rx="14"/>
  <mask id="b" width="29" height="29" x="8" y="8" maskUnits="userSpaceOnUse" style="mask-type:alpha">
    <path fill="#D9D9D9" d="M8.452 8.951h28v28h-28z"/>
  </mask>
  <g mask="url(#b)">
    <path fill="#fff" d="M27.12 24.701c.505 0 .923-.165 1.253-.495.33-.33.496-.749.496-1.255 0-.505-.165-.923-.496-1.254-.33-.33-.748-.495-1.254-.495-.505 0-.923.165-1.254.495-.33.33-.496.749-.496 1.255 0 .505.166.923.496 1.254.33.33.749.495 1.254.495Zm-12.484 8.167c-.583 0-1.08-.204-1.488-.612a2.025 2.025 0 0 1-.612-1.488V15.135c0-.583.204-1.08.612-1.488a2.025 2.025 0 0 1 1.488-.612h15.633c.584 0 1.08.204 1.488.612.408.409.612.905.612 1.488v3.179h-1.75v-3.18a.336.336 0 0 0-.101-.247.338.338 0 0 0-.249-.102H14.636a.335.335 0 0 0-.247.102.335.335 0 0 0-.103.248v15.633c0 .097.034.18.103.249.067.067.15.101.247.101h15.633a.34.34 0 0 0 .249-.101.34.34 0 0 0 .101-.249V27.59h1.75v3.18c0 .583-.204 1.078-.612 1.487a2.025 2.025 0 0 1-1.488.612H14.636Zm9.333-4.667a2.025 2.025 0 0 1-1.487-.612 2.025 2.025 0 0 1-.613-1.487v-6.3c0-.584.204-1.08.613-1.488a2.025 2.025 0 0 1 1.487-.613h7.467c.583 0 1.079.205 1.487.613.409.408.613.904.613 1.488v6.3c0 .583-.204 1.079-.613 1.487a2.025 2.025 0 0 1-1.487.613h-7.467Z"/>
  </g>
  <defs>
    <linearGradient id="a" x1="-11.94" x2="61.089" y1="-12.682" y2="-4.855" gradientUnits="userSpaceOnUse">
      <stop stop-color="#FA00FF"/>
      <stop offset="1" stop-color="#4081FF"/>
    </linearGradient>
  </defs>
</svg>
