<svg xmlns="http://www.w3.org/2000/svg" width="391" height="844" fill="none" viewBox="0 0 391 844">
  <g clip-path="url(#a)">
    <path fill="#fff" d="M.84 0h390v844H.84z"/>
    <g opacity=".1">
      <path fill="url(#b)" d="M309.31 873.802c-69.113-.266-269.55 58.427-351.078-52.837-28.88-48.957-39.348-280.753 33.866-279.18 69.105 1.485 43.287 100.393 257.654 40.705 219.908-61.231 132.97 175.14 59.558 291.312Z"/>
      <path fill="#000" fill-opacity=".2" d="M309.31 873.802c-69.113-.266-269.55 58.427-351.078-52.837-28.88-48.957-39.348-280.753 33.866-279.18 69.105 1.485 43.287 100.393 257.654 40.705 219.908-61.231 132.97 175.14 59.558 291.312Z"/>
    </g>
    <g opacity=".2">
      <path fill="url(#c)" d="M217.993 283.463c-80.513-13.245-183.469-52.137-252.4-172.224-22.178-51.524-17.772-237.935 67.216-222.689C113.027-97.06-57.656 6.437 206.276-9.458c270.755-16.306 131.25 238.972 11.717 292.921Z"/>
      <path fill="#000" fill-opacity=".2" d="M217.993 283.463c-80.513-13.245-183.469-52.137-252.4-172.224-22.178-51.524-17.772-237.935 67.216-222.689C113.027-97.06-57.656 6.437 206.276-9.458c270.755-16.306 131.25 238.972 11.717 292.921Z"/>
    </g>
    <mask id="d" width="329" height="328" x="0" y="-164" maskUnits="userSpaceOnUse" style="mask-type:alpha">
      <path fill="#9007FC" fill-opacity=".2" d="M.84-163.65h327.299v327.299H.84z"/>
    </mask>
    <g mask="url(#d)">
      <path fill="#9007FC" fill-opacity=".2" d="M164.49 143.193c-26.593 0-50.741-6.591-72.442-19.774-21.711-13.183-38.703-30.798-50.977-52.845v30.343c0 2.955-.964 5.401-2.891 7.337-1.937 1.928-4.383 2.891-7.337 2.891-2.955 0-5.396-.963-7.324-2.891-1.936-1.936-2.904-4.382-2.904-7.337V48.413c0-3.41 1.195-6.31 3.586-8.7 2.382-2.383 5.278-3.574 8.687-3.574h52.505c2.954 0 5.4.968 7.337 2.905 1.927 1.927 2.89 4.369 2.89 7.323 0 2.955-.963 5.4-2.89 7.337-1.937 1.928-4.383 2.891-7.337 2.891h-28.64c10.002 20.002 24.662 36.026 43.982 48.072 19.32 12.047 40.571 18.07 63.755 18.07 31.593 0 58.927-10.342 82.002-31.025 23.066-20.684 36.417-46.708 40.053-78.075.455-2.954 1.646-5.4 3.573-7.337 1.937-1.927 4.382-2.89 7.337-2.89 2.728 0 5.114 1.022 7.16 3.068 2.046 2.045 2.841 4.432 2.386 7.16-1.591 18.183-6.477 35.175-14.66 50.976-8.182 15.792-18.638 29.484-31.366 41.076-12.728 11.592-27.329 20.738-43.804 27.439-16.483 6.71-34.043 10.064-52.681 10.064ZM31.525-3.409c-2.728 0-5.114-1.023-7.16-3.069-2.046-2.045-2.841-4.432-2.387-7.16 1.819-18.637 6.82-35.857 15.002-51.658 8.182-15.792 18.638-29.484 31.366-41.076 12.728-11.592 27.334-20.629 43.817-27.112 16.474-6.473 33.916-9.709 52.327-9.709 26.366 0 50.513 6.591 72.442 19.774 21.938 13.183 38.931 31.025 50.977 53.527v-31.025c0-2.955.968-5.401 2.905-7.337 1.927-1.928 4.368-2.891 7.323-2.891s5.396.963 7.323 2.891c1.937 1.936 2.905 4.382 2.905 7.337v52.504c0 3.41-1.191 6.305-3.573 8.687-2.391 2.391-5.291 3.587-8.701 3.587h-52.504c-2.955 0-5.396-.969-7.323-2.905-1.937-1.928-2.905-4.369-2.905-7.324 0-2.954.968-5.4 2.905-7.336 1.927-1.928 4.368-2.892 7.323-2.892h28.639c-9.774-19.547-24.32-35.457-43.64-47.731-19.32-12.273-40.685-18.41-64.096-18.41-31.139 0-58.355 10.228-81.648 30.684-23.301 20.456-36.77 46.595-40.407 78.415-.455 2.955-1.646 5.396-3.573 7.324-1.937 1.936-4.383 2.905-7.337 2.905Zm132.624 96.144c-2.5 0-4.659-.91-6.478-2.728-1.818-1.818-2.727-3.977-2.727-6.478v-7.841c-8.637-1.819-16.024-5-22.161-9.546-6.137-4.546-11.024-10.683-14.66-18.41-1.137-2.274-1.137-4.66 0-7.16 1.136-2.5 2.841-4.206 5.114-5.115 2.273-.909 4.605-.909 6.996 0 2.382.91 4.255 2.5 5.618 4.773 3.41 6.137 7.787 10.856 13.133 14.156 5.337 3.291 11.187 4.937 17.552 4.937 7.727 0 14.66-1.932 20.797-5.796 6.137-3.864 9.205-10.114 9.205-18.752 0-7.045-2.614-12.673-7.842-16.883-5.227-4.2-15.114-9.028-29.661-14.483-14.092-5-24.207-10.628-30.343-16.883-6.137-6.246-9.206-14.483-9.206-24.711 0-8.864 3.128-16.879 9.383-24.043 6.246-7.155 15.165-11.869 26.757-14.142v-7.16c0-2.5.909-4.659 2.727-6.477 1.818-1.819 3.978-2.728 6.478-2.728 2.5 0 4.659.91 6.478 2.728 1.818 1.818 2.727 3.977 2.727 6.477v7.16c6.137.455 11.878 2.387 17.224 5.796 5.337 3.41 9.824 7.728 13.46 12.956 1.592 2.045 1.873 4.373.846 6.982-1.018 2.618-2.778 4.382-5.278 5.291-2.045.91-4.145.969-6.3.178-2.164-.8-4.155-2.223-5.973-4.269-2.501-3.182-5.683-5.741-9.547-7.678-3.864-1.927-8.296-2.89-13.296-2.89-8.41 0-15.056 2.045-19.938 6.136-4.891 4.091-7.337 9.319-7.337 15.683 0 6.364 2.386 11.365 7.16 15.001 4.773 3.637 14.319 7.842 28.638 12.615 16.365 5.91 27.334 12.56 32.907 19.952 5.565 7.382 8.347 15.846 8.347 25.392 0 13.183-4.26 23.07-12.779 29.662-8.528 6.591-18.133 10.569-28.816 11.933v7.16c0 2.5-.909 4.659-2.727 6.477-1.819 1.819-3.978 2.728-6.478 2.728Z"/>
    </g>
  </g>
  <defs>
    <linearGradient id="b" x1="-249.019" x2="515.535" y1="469.513" y2="412.273" gradientUnits="userSpaceOnUse">
      <stop stop-color="#FA00FF"/>
      <stop offset="1" stop-color="#4081FF"/>
    </linearGradient>
    <linearGradient id="c" x1="-159.122" x2="512.288" y1="-232.032" y2="-160.534" gradientUnits="userSpaceOnUse">
      <stop stop-color="#FA00FF"/>
      <stop offset="1" stop-color="#4081FF"/>
    </linearGradient>
    <clipPath id="a">
      <path fill="#fff" d="M0 0h390v844H0z" transform="translate(.84)"/>
    </clipPath>
  </defs>
</svg>
