<svg xmlns="http://www.w3.org/2000/svg" width="96" height="96" fill="none" viewBox="0 0 96 96">
  <path fill="url(#a)" d="M18.074 74.587A54.3 54.3 0 0 1 31.9 67.114c4.981-1.827 10.295-2.74 15.941-2.74 5.646 0 10.96.913 15.942 2.74a54.299 54.299 0 0 1 13.825 7.473c3.072-3.404 5.521-7.348 7.348-11.832 1.826-4.484 2.74-9.34 2.74-14.572 0-11.043-3.881-20.447-11.643-28.212C68.287 12.21 58.883 8.33 47.84 8.33s-20.445 3.88-28.207 11.642C11.87 27.736 7.987 37.142 7.987 48.183c0 5.231.913 10.088 2.74 14.572 1.827 4.484 4.276 8.428 7.348 11.832ZM47.84 51.92c-4.566 0-8.406-1.558-11.518-4.673-3.115-3.112-4.672-6.952-4.672-11.518 0-4.567 1.557-8.406 4.672-11.518 3.112-3.115 6.952-4.673 11.518-4.673 4.567 0 8.406 1.558 11.518 4.673 3.116 3.112 4.673 6.951 4.673 11.518 0 4.566-1.558 8.406-4.673 11.518-3.112 3.115-6.951 4.673-11.518 4.673Zm0 43.59c-6.559 0-12.723-1.245-18.492-3.736-5.772-2.491-10.776-5.854-15.01-10.088-4.235-4.235-7.597-9.238-10.088-15.01C1.759 60.906.513 54.743.513 48.183c0-6.559 1.246-12.725 3.737-18.497 2.49-5.769 5.853-10.77 10.088-15.005 4.234-4.235 9.238-7.597 15.01-10.088C35.117 2.102 41.281.856 47.84.856c6.56 0 12.725 1.246 18.498 3.737 5.769 2.49 10.77 5.853 15.005 10.088 4.234 4.234 7.597 9.236 10.088 15.005 2.49 5.772 3.736 11.938 3.736 18.497 0 6.56-1.245 12.724-3.736 18.493-2.49 5.772-5.854 10.775-10.088 15.01-4.235 4.234-9.236 7.597-15.005 10.088-5.772 2.49-11.938 3.736-18.498 3.736Zm0-7.472a39.45 39.45 0 0 0 13.018-2.182c4.191-1.452 7.906-3.464 11.144-6.038-3.238-2.491-6.913-4.442-11.025-5.854-4.108-1.412-8.487-2.117-13.137-2.117s-9.028.686-13.137 2.057c-4.111 1.369-7.786 3.34-11.024 5.914 3.238 2.574 6.953 4.586 11.144 6.038a39.45 39.45 0 0 0 13.017 2.182Zm0-43.591c2.491 0 4.567-.83 6.228-2.49 1.66-1.662 2.49-3.737 2.49-6.228 0-2.491-.83-4.567-2.49-6.227-1.661-1.661-3.737-2.491-6.228-2.491-2.49 0-4.566.83-6.227 2.49-1.66 1.661-2.49 3.737-2.49 6.228 0 2.49.83 4.566 2.49 6.227 1.66 1.66 3.736 2.491 6.227 2.491Z"/>
  <path fill="#000" fill-opacity=".2" d="M18.074 74.587A54.3 54.3 0 0 1 31.9 67.114c4.981-1.827 10.295-2.74 15.941-2.74 5.646 0 10.96.913 15.942 2.74a54.299 54.299 0 0 1 13.825 7.473c3.072-3.404 5.521-7.348 7.348-11.832 1.826-4.484 2.74-9.34 2.74-14.572 0-11.043-3.881-20.447-11.643-28.212C68.287 12.21 58.883 8.33 47.84 8.33s-20.445 3.88-28.207 11.642C11.87 27.736 7.987 37.142 7.987 48.183c0 5.231.913 10.088 2.74 14.572 1.827 4.484 4.276 8.428 7.348 11.832ZM47.84 51.92c-4.566 0-8.406-1.558-11.518-4.673-3.115-3.112-4.672-6.952-4.672-11.518 0-4.567 1.557-8.406 4.672-11.518 3.112-3.115 6.952-4.673 11.518-4.673 4.567 0 8.406 1.558 11.518 4.673 3.116 3.112 4.673 6.951 4.673 11.518 0 4.566-1.558 8.406-4.673 11.518-3.112 3.115-6.951 4.673-11.518 4.673Zm0 43.59c-6.559 0-12.723-1.245-18.492-3.736-5.772-2.491-10.776-5.854-15.01-10.088-4.235-4.235-7.597-9.238-10.088-15.01C1.759 60.906.513 54.743.513 48.183c0-6.559 1.246-12.725 3.737-18.497 2.49-5.769 5.853-10.77 10.088-15.005 4.234-4.235 9.238-7.597 15.01-10.088C35.117 2.102 41.281.856 47.84.856c6.56 0 12.725 1.246 18.498 3.737 5.769 2.49 10.77 5.853 15.005 10.088 4.234 4.234 7.597 9.236 10.088 15.005 2.49 5.772 3.736 11.938 3.736 18.497 0 6.56-1.245 12.724-3.736 18.493-2.49 5.772-5.854 10.775-10.088 15.01-4.235 4.234-9.236 7.597-15.005 10.088-5.772 2.49-11.938 3.736-18.498 3.736Zm0-7.472a39.45 39.45 0 0 0 13.018-2.182c4.191-1.452 7.906-3.464 11.144-6.038-3.238-2.491-6.913-4.442-11.025-5.854-4.108-1.412-8.487-2.117-13.137-2.117s-9.028.686-13.137 2.057c-4.111 1.369-7.786 3.34-11.024 5.914 3.238 2.574 6.953 4.586 11.144 6.038a39.45 39.45 0 0 0 13.017 2.182Zm0-43.591c2.491 0 4.567-.83 6.228-2.49 1.66-1.662 2.49-3.737 2.49-6.228 0-2.491-.83-4.567-2.49-6.227-1.661-1.661-3.737-2.491-6.228-2.491-2.49 0-4.566.83-6.227 2.49-1.66 1.661-2.49 3.737-2.49 6.228 0 2.49.83 4.566 2.49 6.227 1.66 1.66 3.736 2.491 6.227 2.491Z"/>
  <defs>
    <linearGradient id="a" x1="-25.571" x2="130.311" y1="-27.878" y2="-11.171" gradientUnits="userSpaceOnUse">
      <stop stop-color="#FA00FF"/>
      <stop offset="1" stop-color="#4081FF"/>
    </linearGradient>
  </defs>
</svg>
